# xmcd
#
# Track frame offsets: 
#        150
#        1345
#        19794
#        37102
#        53723
#
# Disc length: 928 seconds
#
# Revision: 0
# Processed by: cddbd v1.5.2PL0 Copyright (c) Steve Scherf et al.
# Submitted via: ExactAudioCopy v0.95b4
#
DISCID=34039e05
DTITLE=Various Artist - Soft and Beautiful Presents
DYEAR=2006
DGENRE=R&B
TTITLE0=Neo Soul Cafe's Frances Jaye - (Spoken Word)
TTITLE1=Heather Headley - In My Mind
TTITLE2=Anthony David - Stop Playing Games
TTITLE3=Yolanda Johnson - Individual
TTITLE4=Geno Young - I Really Do (For Real)
EXTD=
EXTT0=
EXTT1=
EXTT2=
EXTT3=
EXTT4=
PLAYORDER=
